<?xml version="1.0" encoding="UTF-8"?>
<svg version="1.1" xmlns="http://www.w3.org/2000/svg" width="512" height="492">
<path d="M0 0 C0.81845901 -0.00705963 1.63691803 -0.01411926 2.48017883 -0.02139282 C36.63872014 -0.24916093 36.63872014 -0.24916093 52.109375 3.203125 C52.99157715 3.39116699 53.8737793 3.57920898 54.78271484 3.77294922 C101.61858287 14.0134582 145.07589382 40.81049737 174.109375 79.203125 C174.5439502 79.76177246 174.97852539 80.32041992 175.42626953 80.89599609 C194.41777419 105.46819299 206.97119565 134.84530777 213.109375 165.203125 C213.35494141 166.40582031 213.35494141 166.40582031 213.60546875 167.6328125 C223.51443891 218.89740191 212.00287487 275.05633996 183.33203125 318.546875 C181.04244492 321.86397877 178.60905242 325.04176826 176.109375 328.203125 C175.44679688 329.07324219 174.78421875 329.94335938 174.1015625 330.83984375 C168.82620768 337.64227497 163.01702852 343.95256934 157.109375 350.203125 C156.30628906 351.06035156 155.50320313 351.91757812 154.67578125 352.80078125 C127.51317814 380.94462783 89.98842754 399.12917901 52.109375 407.203125 C50.92335693 407.46778564 50.92335693 407.46778564 49.71337891 407.73779297 C3.98794649 417.51878964 -46.10030269 408.0134606 -86.890625 386.203125 C-87.49648437 385.88085938 -88.10234375 385.55859375 -88.7265625 385.2265625 C-113.09131492 372.13981775 -135.20447802 353.26816858 -151.890625 331.203125 C-152.54248779 330.36515381 -152.54248779 330.36515381 -153.20751953 329.51025391 C-172.19902419 304.93805701 -184.75244565 275.56094223 -190.890625 245.203125 C-191.05433594 244.40132812 -191.21804687 243.59953125 -191.38671875 242.7734375 C-201.13112955 192.36020479 -190.35014857 136.02462308 -161.890625 93.265625 C-160.25943307 90.88485472 -158.58791212 88.5371443 -156.890625 86.203125 C-156.48344238 85.64044922 -156.07625977 85.07777344 -155.65673828 84.49804688 C-149.61113169 76.21981048 -142.97055339 68.60669292 -135.890625 61.203125 C-135.01664063 60.27628906 -134.14265625 59.34945312 -133.2421875 58.39453125 C-113.18113706 37.65693512 -87.68362646 22.49270661 -60.890625 12.203125 C-60.16681641 11.92339844 -59.44300781 11.64367188 -58.69726562 11.35546875 C-40.14941339 4.33002426 -19.860381 0.11472477 0 0 Z M69.76953125 175.421875 C65.28966191 180.22851128 63.96086379 185.77471114 64.109375 192.203125 C65.02163251 198.0842745 67.13313814 202.27976094 71.96264648 205.83325195 C79.18972077 210.44500151 87.81641757 212.32224949 96.046875 214.328125 C98.07813029 214.82541914 100.10814949 215.32779753 102.13671875 215.8359375 C103.02093506 216.05137207 103.90515137 216.26680664 104.81616211 216.48876953 C107.109375 217.203125 107.109375 217.203125 110.109375 219.203125 C110.51781423 221.91516152 110.24274367 224.4468392 110.109375 227.203125 C99.54097462 229.70295817 89.09243316 228.84114218 78.9765625 225.17578125 C76.02533873 224.17461678 73.19049934 223.6374081 70.109375 223.203125 C69.09903002 224.94717288 68.10145078 226.69862061 67.109375 228.453125 C66.2740625 229.91492188 66.2740625 229.91492188 65.421875 231.40625 C63.82615996 234.29172189 63.82615996 234.29172189 64.109375 238.203125 C80.76662934 245.58755924 98.72989541 249.38105687 116.515625 242.9765625 C123.58964931 239.70219976 128.82242404 235.96760616 132.234375 228.859375 C134.19193861 222.91677118 134.15368076 216.41223334 131.484375 210.765625 C122.65950122 201.24405066 112.47673877 198.86710073 100.15380859 195.953125 C91.54961437 193.90948373 91.54961437 193.90948373 88.109375 192.203125 C86.88778968 189.75995436 86.95903775 188.66780376 87.796875 186.078125 C89.42459432 183.75281168 90.45834869 183.22478298 93.109375 182.203125 C102.23861387 181.24915836 109.87338782 182.23908496 118.5 185.42578125 C121.18398736 186.4970981 121.18398736 186.4970981 124.109375 185.203125 C125.62041523 182.79706003 125.62041523 182.79706003 126.859375 179.890625 C127.53226562 178.44236328 127.53226562 178.44236328 128.21875 176.96484375 C129.2401318 174.33367519 129.2401318 174.33367519 129.03125 171.98046875 C127.29920016 168.64113538 123.99292524 168.20332534 120.59375 167.09375 C103.04656206 162.60859434 83.70276412 162.34735032 69.76953125 175.421875 Z M-96.49194336 168.28344727 C-97.18429077 169.72868774 -97.18429077 169.72868774 -97.890625 171.203125 C-98.43944336 172.30817383 -98.98826172 173.41322266 -99.55371094 174.55175781 C-100.16357665 175.83527634 -100.77050392 177.12019383 -101.375 178.40625 C-101.707845 179.10945374 -102.04069 179.81265747 -102.38362122 180.53717041 C-103.47254091 182.84097087 -104.55703722 185.14681228 -105.640625 187.453125 C-106.0114621 188.24114502 -106.38229919 189.02916504 -106.76437378 189.84106445 C-109.48423685 195.62324486 -112.19094263 201.4114975 -114.890625 207.203125 C-115.26705139 208.01031982 -115.64347778 208.81751465 -116.03131104 209.64916992 C-118.18543351 214.27268656 -120.32864742 218.9010192 -122.45690918 223.53649902 C-123.11873493 224.97587475 -123.78302614 226.41411953 -124.4498291 227.85119629 C-125.37640087 229.8505792 -126.29304719 231.85421293 -127.20703125 233.859375 C-127.72724854 234.99181641 -128.24746582 236.12425781 -128.78344727 237.29101562 C-130.12754457 240.30702623 -130.12754457 240.30702623 -129.890625 244.203125 C-122.960625 244.203125 -116.030625 244.203125 -108.890625 244.203125 C-104.75752772 236.55122557 -104.75752772 236.55122557 -102.890625 229.203125 C-90.680625 229.203125 -78.470625 229.203125 -65.890625 229.203125 C-64.900625 232.173125 -63.910625 235.143125 -62.890625 238.203125 C-61.900625 240.183125 -60.910625 242.163125 -59.890625 244.203125 C-52.960625 244.203125 -46.030625 244.203125 -38.890625 244.203125 C-37.56036239 240.21233718 -38.60249115 239.08225603 -40.3984375 235.33203125 C-40.6753241 234.74636383 -40.95221069 234.16069641 -41.23748779 233.55728149 C-42.15461236 231.62234452 -43.08516877 229.69418174 -44.015625 227.765625 C-44.65746927 226.41692481 -45.29824397 225.06771513 -45.93798828 223.71801758 C-47.26158819 220.92708821 -48.58943166 218.13823652 -49.91992188 215.35058594 C-52.9190254 209.05408293 -55.83908967 202.72107994 -58.765625 196.390625 C-63.43875132 186.31140197 -68.14143614 176.24672682 -72.890625 166.203125 C-76.49436963 166.05811856 -80.09736742 165.96915737 -83.703125 165.890625 C-85.23936523 165.8277832 -85.23936523 165.8277832 -86.80664062 165.76367188 C-88.28100586 165.73950195 -88.28100586 165.73950195 -89.78515625 165.71484375 C-90.69112549 165.68865967 -91.59709473 165.66247559 -92.53051758 165.63549805 C-95.06926346 165.98484977 -95.06926346 165.98484977 -96.49194336 168.28344727 Z M-28.890625 167.203125 C-28.99088195 169.57074075 -29.02681435 171.90919573 -29.02001953 174.27734375 C-29.02177185 175.01715485 -29.02352417 175.75696594 -29.02532959 176.51919556 C-29.0297481 178.97636223 -29.02681013 181.43345753 -29.0234375 183.890625 C-29.02411054 185.59073907 -29.02508057 187.29085305 -29.02633667 188.9909668 C-29.02781364 192.55876581 -29.02565911 196.12653983 -29.02099609 199.69433594 C-29.0152988 204.27800994 -29.01857781 208.86162539 -29.02456856 213.44529724 C-29.02817419 216.95732061 -29.02703557 220.46932998 -29.02444077 223.98135376 C-29.0237715 225.67192593 -29.02459989 227.36249936 -29.02692032 229.05307007 C-29.02944689 231.41171657 -29.02560621 233.77026695 -29.02001953 236.12890625 C-29.02204376 236.83439606 -29.02406799 237.53988586 -29.02615356 238.26675415 C-29.28878066 241.51504543 -29.28878066 241.51504543 -27.890625 244.203125 C-26.54788608 244.31143089 -25.19958425 244.35212356 -23.85253906 244.36425781 C-22.56419159 244.37866913 -22.56419159 244.37866913 -21.24981689 244.39337158 C-20.31143982 244.39762146 -19.37306274 244.40187134 -18.40625 244.40625 C-17.43967468 244.41195007 -16.47309937 244.41765015 -15.47723389 244.42352295 C-13.41924133 244.43299801 -11.36123343 244.43951682 -9.30322266 244.44335938 C-6.1953543 244.452956 -3.08817856 244.48390862 0.01953125 244.515625 C16.23468368 244.60374727 30.93320312 243.79633681 43.921875 232.828125 C44.64375 231.961875 45.365625 231.095625 46.109375 230.203125 C46.61082031 229.61789062 47.11226563 229.03265625 47.62890625 228.4296875 C55.33751894 218.93927869 56.15425343 209.06073416 55.109375 197.203125 C53.10521997 187.9409848 48.58784354 180.39594449 40.796875 174.953125 C29.74418963 168.15147247 19.23016331 165.87289415 6.32421875 165.97265625 C5.34191788 165.97311447 4.359617 165.97357269 3.34754944 165.9740448 C1.29296647 165.9770424 -0.76161474 165.98485284 -2.81616211 165.99731445 C-5.97582937 166.01575753 -9.13520599 166.01782251 -12.29492188 166.01757812 C-14.29687756 166.02248726 -16.29883125 166.02831291 -18.30078125 166.03515625 C-19.24856949 166.03626907 -20.19635773 166.0373819 -21.17286682 166.03852844 C-22.47573891 166.04809822 -22.47573891 166.04809822 -23.80493164 166.05786133 C-24.57196915 166.06167313 -25.33900665 166.06548492 -26.12928772 166.06941223 C-27.91747811 166.01279424 -27.91747811 166.01279424 -28.890625 167.203125 Z " fill="#6161FF" transform="translate(244.890625,40.796875)"/>
<path d="M0 0 C25.25582914 -0.90622627 25.25582914 -0.90622627 32.84765625 5.578125 C37.46428334 10.42394634 38.78641609 15.30884271 39.3125 21.9375 C39.12059714 28.13836132 36.88891384 34.11893488 32.58984375 38.6796875 C23.49868269 46.22959521 11.07590804 44.39742425 0 44 C-1.68335939 40.63328122 -1.14154289 36.827034 -1.1328125 33.125 C-1.13376923 32.24473145 -1.13472595 31.36446289 -1.13571167 30.45751953 C-1.13639276 28.59472584 -1.13454343 26.73192977 -1.13037109 24.86914062 C-1.12502184 22.01166472 -1.13031849 19.154346 -1.13671875 16.296875 C-1.13605796 14.48958299 -1.13477677 12.68229107 -1.1328125 10.875 C-1.13483673 10.01664551 -1.13686096 9.15829102 -1.13894653 8.27392578 C-1.11495872 2.22991745 -1.11495872 2.22991745 0 0 Z " fill="#6060FF" transform="translate(239,224)"/>
<path d="M0 0 C1.65 0 3.3 0 5 0 C6.18064075 2.53596815 7.34452081 5.07759222 8.5 7.625 C9.00080078 8.69427734 9.00080078 8.69427734 9.51171875 9.78515625 C9.82753906 10.48769531 10.14335937 11.19023437 10.46875 11.9140625 C10.90864258 12.8723999 10.90864258 12.8723999 11.35742188 13.85009766 C12 16 12 16 12 22 C5.73 22 -0.54 22 -7 22 C-7 15.25 -7 15.25 -5.46875 11.9140625 C-4.99501953 10.86025391 -4.99501953 10.86025391 -4.51171875 9.78515625 C-4.17785156 9.07230469 -3.84398437 8.35945312 -3.5 7.625 C-3.16613281 6.88894531 -2.83226562 6.15289062 -2.48828125 5.39453125 C-1.66884796 3.59177802 -0.83578451 1.79523101 0 0 Z " fill="#6161FF" transform="translate(158,232)"/>
</svg>
