<?xml version="1.0" encoding="UTF-8"?>
<svg version="1.1" xmlns="http://www.w3.org/2000/svg" width="512" height="512">
<path d="M0 0 C7.78055619 -0.1164248 15.56090406 -0.20498161 23.3421154 -0.25906086 C26.95625701 -0.28503134 30.56979782 -0.32019409 34.18359375 -0.37719727 C37.67849662 -0.431973 41.17282578 -0.46151462 44.66812515 -0.47438622 C46.63448279 -0.48796899 48.60061318 -0.5269284 50.56661987 -0.56648254 C59.26849539 -0.56917511 66.31734548 0.71018966 72.90231323 6.74272156 C79.89185421 14.17431054 81.15105693 22.73083749 81.14044189 32.61355591 C81.14341302 33.47986346 81.14638414 34.34617101 81.1494453 35.23873031 C81.15811558 38.14109694 81.15963914 41.04342223 81.16113281 43.94580078 C81.16576222 46.02718697 81.17078705 48.10857231 81.17617798 50.18995667 C81.18929344 55.84517717 81.19574546 61.50038581 81.20018864 67.15561914 C81.20312117 70.69069102 81.20722635 74.22575967 81.21169281 77.76082993 C81.22536644 88.82665845 81.23503336 99.89247958 81.2388947 110.95831597 C81.24337312 123.72175693 81.26091165 136.48509067 81.2898953 149.24849904 C81.31153272 159.12045451 81.32160011 168.99237986 81.32293582 178.86435878 C81.3239825 184.7573025 81.32986121 190.65014542 81.34775543 196.54306412 C81.36427134 202.09002117 81.36637447 207.63680202 81.35761642 213.18377495 C81.3568479 215.21421087 81.36116434 217.2446564 81.37107468 219.27506828 C81.44587384 235.56133671 80.26210928 249.0853126 68.875 261.75 C59.29003253 270.79889546 48.05285887 272.48172393 35.49609375 272.27734375 C30.02478987 272.04979728 25.73789098 270.74524008 21 268 C20.22398437 267.57589844 19.44796875 267.15179688 18.6484375 266.71484375 C9.37911463 261.15014992 3.4435524 252.46447507 0.46228033 242.13733697 C-0.01284441 239.94061432 -0.12421965 238.00484099 -0.12304783 235.75963974 C-0.12503888 234.91566061 -0.12702993 234.07168148 -0.12908131 233.20212722 C-0.12616847 232.27995099 -0.12325563 231.35777477 -0.12025452 230.40765381 C-0.12110894 229.42418354 -0.12196337 228.44071328 -0.12284368 227.42744088 C-0.12449432 224.12315836 -0.11898386 220.8189263 -0.11352539 217.51464844 C-0.1132434 215.14955649 -0.11340148 212.78446446 -0.1139679 210.41937256 C-0.11425542 203.99005477 -0.10836592 197.56075554 -0.10139394 191.13144207 C-0.09530885 185.09571792 -0.09477135 179.05999226 -0.09374207 173.02426556 C-0.09155338 161.06923343 -0.08489824 149.11420812 -0.07543945 137.15917969 C-0.06626061 125.54589878 -0.05918208 113.93261974 -0.05493164 102.31933594 C-0.05466892 101.60350789 -0.05440619 100.88767985 -0.05413551 100.15016004 C-0.05283047 96.55906549 -0.05156676 92.96797093 -0.05032361 89.37687635 C-0.03995669 59.58457954 -0.022269 29.7922904 0 0 Z " fill="#000000" transform="translate(216,160)"/>
<path d="M0 0 C1.18172791 -0.00540298 2.36345581 -0.01080597 3.58099365 -0.01637268 C7.46791014 -0.02882787 11.35408115 -0.01238597 15.2409668 0.00561523 C17.95705043 0.0073729 20.67312373 0.00402276 23.38920593 0.00120544 C29.07580155 -0.00148994 34.7621853 0.0119169 40.44873047 0.03515625 C46.99427899 0.06172343 53.53947268 0.06352286 60.0850566 0.05176789 C66.41382274 0.04093054 72.74246233 0.04722604 79.07121849 0.06132317 C81.74918859 0.0670356 84.42691232 0.06619021 87.10491371 0.06225777 C90.85921747 0.05932593 94.61295549 0.07594895 98.3671875 0.09765625 C99.46004562 0.0931546 100.55290375 0.08865295 101.67887878 0.08401489 C111.98417576 0.18230764 121.67362464 2.30750538 130.87768555 7.00170898 C131.54920654 7.34137695 132.22072754 7.68104492 132.91259766 8.03100586 C139.95040668 11.78361212 145.38720582 16.78386276 150.87768555 22.50170898 C151.89088867 23.52071289 151.89088867 23.52071289 152.92456055 24.56030273 C168.64906203 41.2936771 172.42782516 63.40443466 171.87768555 85.50170898 C169.18203515 84.2487201 167.46637683 83.13822686 165.19018555 81.12670898 C154.97090769 72.42616512 142.36550537 73.35466247 129.70019531 73.35986328 C128.16683859 73.35682741 126.63348276 73.35330478 125.10012817 73.34933472 C121.8104753 73.34147939 118.52083311 73.33631363 115.23117256 73.33304405 C110.02346142 73.32710573 104.81581758 73.31053989 99.60813904 73.29170227 C97.8213015 73.28536593 96.03446392 73.27904029 94.2476263 73.27272511 C93.35314246 73.26955929 92.45865862 73.26639348 91.5370692 73.26313174 C79.42299923 73.22113669 67.30896222 73.18807196 55.19482422 73.17578125 C47.00889625 73.16739101 38.82313689 73.14486986 30.63729328 73.10642558 C26.31162547 73.08670753 21.98620946 73.07424643 17.66049385 73.07925987 C13.59158273 73.08391898 9.52314916 73.07003257 5.45433426 73.04224777 C3.96650828 73.03535882 2.47863268 73.03518461 0.99080849 73.04244804 C-10.46366056 73.09269558 -18.74791554 71.47089103 -27.27075195 63.47436523 C-34.47352469 55.80052509 -38.03088912 47.15402925 -38.55981445 36.62670898 C-38.125213 24.76019986 -33.34855179 15.21724405 -24.80981445 7.25170898 C-17.01104349 1.10956266 -9.75982131 -0.08586314 0 0 Z " fill="#000000" transform="translate(125.122314453125,79.498291015625)"/>
<path d="M0 0 C17.67256601 -0.09363381 35.34505409 -0.16407218 53.01781178 -0.20724869 C61.22444283 -0.2278333 69.43091934 -0.25587493 77.63745117 -0.30175781 C84.79413912 -0.34175176 91.95071509 -0.3674626 99.1075117 -0.37635398 C102.89352489 -0.38154761 106.67921786 -0.39366765 110.46512794 -0.42292023 C114.03647586 -0.45028856 117.60737492 -0.45840242 121.17881775 -0.45243073 C123.09833028 -0.45403735 125.01779513 -0.47544724 126.93717957 -0.49768066 C138.69971943 -0.4422989 147.29298055 2.33041203 155.7734375 10.58203125 C163.56706087 19.04563277 167.77500121 28.65974967 167.34765625 40.328125 C165.72329021 52.8120168 160.58646971 61.48922657 151.0859375 69.4609375 C143.73986342 74.88107455 137.20047191 76.15224047 128.19238281 76.11352539 C127.30422379 76.11367142 126.41606476 76.11381744 125.50099182 76.1139679 C122.56834462 76.1132718 119.6357611 76.10549357 116.703125 76.09765625 C114.6685998 76.09579099 112.63407415 76.0943676 110.59954834 76.09336853 C105.24675251 76.08955184 99.89398384 76.07972876 94.54119873 76.06866455 C89.07825081 76.05843222 83.61529849 76.053867 78.15234375 76.04882812 C67.4348839 76.03810576 56.71744421 76.02103948 46 76 C45.80374023 74.70747314 45.60748047 73.41494629 45.40527344 72.08325195 C45.14015187 70.36406761 44.87484243 68.64491223 44.609375 66.92578125 C44.48095215 66.07665161 44.3525293 65.22752197 44.22021484 64.35266113 C40.90127049 42.98051483 30.75519665 22.06826586 13 9 C9.57232802 6.74516514 6.06798886 4.63888008 2.52734375 2.56640625 C1.69332031 2.04949219 0.85929687 1.53257813 0 1 C0 0.67 0 0.34 0 0 Z " fill="#000000" transform="translate(258,80)"/>
</svg>
