<?xml version="1.0" encoding="UTF-8"?>
<svg version="1.1" xmlns="http://www.w3.org/2000/svg" width="640" height="640">
<path d="M0 0 C0.98669955 -0.00260775 1.9733991 -0.00521549 2.98999864 -0.00790226 C4.08190072 -0.00567154 5.17380281 -0.00344082 6.29879284 -0.0011425 C7.45261918 -0.00270249 8.60644552 -0.00426248 9.79523629 -0.00586975 C13.00772269 -0.00917925 16.22017162 -0.00797319 19.43265712 -0.00488353 C22.89355637 -0.00262882 26.3544504 -0.00610945 29.81534863 -0.00886345 C36.59998012 -0.0133198 43.38460059 -0.01234515 50.16923252 -0.00945081 C55.68306422 -0.00719569 61.19689281 -0.00688473 66.71072483 -0.00797462 C67.88629379 -0.00820447 67.88629379 -0.00820447 69.08561161 -0.00843897 C70.67757089 -0.00875868 72.26953016 -0.0090829 73.86148944 -0.00941156 C88.80509444 -0.0122661 103.74869331 -0.00898003 118.6922973 -0.00361119 C131.51826011 0.00085421 144.34421386 0.00008304 157.17017651 -0.00452995 C172.05436149 -0.00988068 186.93854109 -0.01198865 201.82272691 -0.00891769 C203.40986391 -0.00859913 204.99700091 -0.00828476 206.58413792 -0.00797462 C207.36508759 -0.00782035 208.14603726 -0.00766607 208.95065207 -0.00750712 C214.45716572 -0.00664327 219.96367597 -0.00810207 225.47018909 -0.01045418 C232.18203889 -0.01325802 238.89387699 -0.01250165 245.60572544 -0.00717343 C249.03109103 -0.00454393 252.45643711 -0.00351865 255.88180256 -0.00682259 C259.59341009 -0.00954421 263.3049623 -0.00614037 267.01656628 -0.0011425 C268.1017762 -0.00337322 269.18698612 -0.00560395 270.30508119 -0.00790226 C271.29960398 -0.00529452 272.29412677 -0.00268677 273.31878662 0 C274.1754907 0.00016235 275.03219478 0.0003247 275.91485959 0.00049198 C278.34815502 0.12584114 278.34815502 0.12584114 280.99842805 0.66886246 C283.39725534 1.29485147 283.39725534 1.29485147 285.97315502 0.56334114 C288.34815502 0.12584114 288.34815502 0.12584114 291.34815502 2.12584114 C290.98950828 7.02734664 289.48267273 9.58236948 286.60987377 13.35240364 C284.66677338 16.08357262 283.56236946 19.01111715 282.34815502 22.12584114 C281.61982994 23.93867948 280.89062964 25.75116639 280.16065502 27.56334114 C279.55563053 29.08383341 278.95116262 30.60454787 278.34815502 32.12584114 C277.68815502 32.12584114 277.02815502 32.12584114 276.34815502 32.12584114 C275.97690502 33.38396614 275.60565502 34.64209114 275.22315502 35.93834114 C273.29875367 41.72978597 270.38431601 46.8541778 267.34815502 52.12584114 C266.71586987 53.24152473 266.71586987 53.24152473 266.07081127 54.37974739 C265.17041178 55.96586038 264.26059247 57.54662248 263.34815502 59.12584114 C262.68815502 59.12584114 262.02815502 59.12584114 261.34815502 59.12584114 C261.14190502 59.78584114 260.93565502 60.44584114 260.72315502 61.12584114 C257.00104293 69.24681297 250.81188609 75.29561243 243.34815502 80.12584114 C242.35815502 80.12584114 241.36815502 80.12584114 240.34815502 80.12584114 C240.34815502 80.78584114 240.34815502 81.44584114 240.34815502 82.12584114 C236.34815502 83.45917447 232.34815502 84.79250781 228.34815502 86.12584114 C227.47336498 86.4693763 226.59857494 86.81291145 225.69727612 87.16685677 C221.57408468 88.34748776 217.81813382 88.47840538 213.55128002 88.53990364 C212.69635464 88.55931511 211.84142925 88.57872658 210.96059704 88.59872627 C208.17321722 88.65903375 205.38581304 88.70536154 202.59815502 88.75084114 C200.67391161 88.7887477 198.74967656 88.82708149 196.82544994 88.86583138 C179.66662673 89.19255598 162.50934293 89.2375117 145.34815502 89.12584114 C145.41879124 89.72272371 145.48942747 90.31960629 145.56220418 90.93457621 C146.26160249 97.27844483 146.49224541 103.52084351 146.48186779 109.89959908 C146.48413335 110.93775424 146.4863989 111.97590941 146.48873311 113.04552382 C146.49502696 116.499147 146.49424675 119.95273047 146.49341869 123.40635872 C146.49641289 125.8923008 146.49981603 128.37824242 146.50359631 130.86418343 C146.51149587 136.89907749 146.51464954 142.93395613 146.51520868 148.96885393 C146.51568501 153.87322692 146.51774556 158.77759671 146.52090931 163.68196869 C146.52970333 177.5979552 146.53433013 191.51393402 146.53357884 205.42992333 C146.53353888 206.17866557 146.53349892 206.9274078 146.53345776 207.69883919 C146.53341688 208.44849816 146.53337599 209.19815713 146.53333388 209.97053304 C146.53292677 222.13976877 146.54251573 234.30897367 146.55659612 246.47820047 C146.57095205 258.98439064 146.57786688 271.49056574 146.57700235 283.99676436 C146.57667032 291.01394786 146.57942047 298.03109893 146.5901804 305.04827499 C146.60022397 311.64009026 146.59995827 318.2318486 146.59266376 324.82367134 C146.59161502 327.24525426 146.59399791 329.6668414 146.60002422 332.08841705 C146.60770547 335.38802682 146.60312509 338.68739706 146.59539318 341.98700142 C146.60053674 342.95002593 146.60568031 343.91305045 146.61097974 344.90525752 C146.60638094 345.79034486 146.60178214 346.67543219 146.59704399 347.58734035 C146.59737004 348.72919229 146.59737004 348.72919229 146.59770268 349.89411193 C146.34815502 352.12584114 146.34815502 352.12584114 144.34815502 357.12584114 C111.34815502 357.12584114 78.34815502 357.12584114 44.34815502 357.12584114 C42.59537 351.86748609 42.07209033 348.06815024 42.12542248 342.69574165 C42.12568048 341.86124809 42.12593849 341.02675454 42.12620431 340.16697329 C42.12958889 337.37816455 42.14743043 334.58964075 42.16529369 331.80088997 C42.17081073 329.79817601 42.17547889 327.79545957 42.1793623 325.79274178 C42.19271126 320.35651422 42.2190434 314.92042222 42.24850154 309.4842608 C42.27203539 304.9418305 42.28947848 300.39938488 42.30699998 295.85692805 C42.34854847 285.13522949 42.40084027 274.41361952 42.45972729 263.69200325 C42.52021014 252.64493424 42.56248302 241.59790172 42.59575194 230.55072004 C42.62500074 221.05660242 42.66571219 211.56258038 42.71551591 202.06854838 C42.7451181 196.40257889 42.77041208 190.73667518 42.7846384 185.07064438 C42.7985206 179.73782037 42.82677272 174.40525834 42.86584377 169.07256126 C42.87778247 167.12116928 42.8847537 165.16973924 42.88624668 163.21831131 C42.91441599 136.83994979 42.91441599 136.83994979 51.34815502 127.12584114 C52.00815502 127.12584114 52.66815502 127.12584114 53.34815502 127.12584114 C53.68846752 126.01209114 53.68846752 126.01209114 54.03565502 124.87584114 C55.62424015 121.54737706 57.29814368 120.15918203 60.34815502 118.12584114 C61.68148836 117.79250781 63.01482169 117.45917447 64.34815502 117.12584114 C64.67815502 116.13584114 65.00815502 115.14584114 65.34815502 114.12584114 C67.68530106 112.98111655 69.91889701 112.02673102 72.34815502 111.12584114 C73.03514477 110.86238899 73.72213451 110.59893684 74.42994213 110.3275013 C82.84298708 107.12735002 91.33454146 104.54296532 99.99659252 102.09459114 C105.12045395 100.61356826 110.15089225 98.90580873 115.17628002 97.12193489 C121.84811726 94.80389913 128.36185613 93.17103546 135.34815502 92.12584114 C135.01815502 91.46584114 134.68815502 90.80584114 134.34815502 90.12584114 C112.92829123 88.79596448 91.49435348 88.99472866 70.04377961 89.0244472 C64.69605625 89.03077162 59.34833211 89.03129163 54.00060558 89.03247261 C43.91135717 89.03555948 33.82211982 89.04373658 23.73287624 89.0538221 C12.23074943 89.06506618 0.72862205 89.07051443 -10.77350891 89.07551754 C-34.39962702 89.08592192 -58.02573537 89.10346921 -81.65184498 89.12584114 C-81.05633702 85.1574789 -80.50887989 82.37918239 -78.21434498 79.06334114 C-76.28993735 76.16560595 -74.78993942 73.43666134 -73.65184498 70.12584114 C-72.99184498 70.12584114 -72.33184498 70.12584114 -71.65184498 70.12584114 C-71.56547779 69.43877083 -71.4791106 68.75170052 -71.39012623 68.04380989 C-70.47852453 64.4408127 -68.75249675 61.57863512 -66.83934498 58.43834114 C-63.94389019 53.54774204 -61.5657916 48.75694521 -59.56981373 43.42271614 C-53.15212333 27.36483549 -41.11272734 12.04493677 -25.08934498 5.00084114 C-19.94217945 3.00308283 -14.79915802 2.20928748 -9.33934498 1.52037239 C-5.92413217 1.01901121 -3.54545154 0.00067227 0 0 Z " fill="#01A6F2" transform="translate(217.65184497833252,163.87415885925293)"/>
<path d="M0 0 C0.66 0 1.32 0 2 0 C1.64135326 4.9015055 0.13451771 7.45652834 -2.73828125 11.2265625 C-4.68138165 13.95773148 -5.78578556 16.88527601 -7 20 C-7.72832508 21.81283834 -8.45752538 23.62532525 -9.1875 25.4375 C-9.7925245 26.95799227 -10.3969924 28.47870673 -11 30 C-11.66 30 -12.32 30 -13 30 C-13.37125 31.258125 -13.7425 32.51625 -14.125 33.8125 C-16.04940135 39.60394483 -18.96383901 44.72833666 -22 50 C-22.63228516 51.11568359 -22.63228516 51.11568359 -23.27734375 52.25390625 C-24.17774324 53.84001924 -25.08756255 55.42078134 -26 57 C-26.66 57 -27.32 57 -28 57 C-28.20625 57.66 -28.4125 58.32 -28.625 59 C-32.34711209 67.12097183 -38.53626893 73.16977129 -46 78 C-46.99 78 -47.98 78 -49 78 C-49 78.66 -49 79.32 -49 80 C-53 81.33333333 -57 82.66666667 -61 84 C-61.87479004 84.34353516 -62.74958008 84.68707031 -63.65087891 85.04101562 C-67.77407034 86.22164662 -71.5300212 86.35256424 -75.796875 86.4140625 C-76.65180038 86.43347397 -77.50672577 86.45288544 -78.38755798 86.47288513 C-81.17493781 86.53319261 -83.96234198 86.5795204 -86.75 86.625 C-88.67424342 86.66290656 -90.59847846 86.70124035 -92.52270508 86.73999023 C-109.68152829 87.06671484 -126.8388121 87.11167056 -144 87 C-143.92936378 87.59688257 -143.85872755 88.19376515 -143.78595084 88.80873507 C-143.08655253 95.15260369 -142.85590961 101.39500237 -142.86628723 107.77375793 C-142.86402167 108.8119131 -142.86175612 109.85006827 -142.85942191 110.91968268 C-142.85312806 114.37330586 -142.85390827 117.82688933 -142.85473633 121.28051758 C-142.85174213 123.76645966 -142.848339 126.25240128 -142.84455872 128.73834229 C-142.83665915 134.77323635 -142.83350548 140.80811499 -142.83294634 146.84301279 C-142.83247001 151.74738578 -142.83040946 156.65175557 -142.82724571 161.55612755 C-142.8184517 175.47211406 -142.81382489 189.38809288 -142.81457619 203.30408219 C-142.81461614 204.05282442 -142.8146561 204.80156666 -142.81469727 205.57299805 C-142.81473815 206.32265702 -142.81477903 207.07231599 -142.81482115 207.84469189 C-142.81522825 220.01392763 -142.8056393 232.18313252 -142.7915589 244.35235933 C-142.77720297 256.8585495 -142.77028814 269.3647246 -142.77115268 281.87092322 C-142.7714847 288.88810672 -142.76873456 295.90525779 -142.75797462 302.92243385 C-142.74793105 309.51424912 -142.74819676 316.10600746 -142.75549126 322.6978302 C-142.75654 325.11941312 -142.75415711 327.54100026 -142.7481308 329.96257591 C-142.74044955 333.26218568 -142.74502993 336.56155592 -142.75276184 339.86116028 C-142.74761828 340.82418479 -142.74247471 341.78720931 -142.73717529 342.77941638 C-142.74177408 343.66450372 -142.74637288 344.54959105 -142.75111103 345.46149921 C-142.75078498 346.60335114 -142.75078498 346.60335114 -142.75045234 347.76827079 C-143 350 -143 350 -145 355 C-178 355 -211 355 -245 355 C-246.75278502 349.74164495 -247.2760647 345.9423091 -247.22273254 340.56990051 C-247.22247454 339.73540695 -247.22221653 338.90091339 -247.22195071 338.04113215 C-247.21856614 335.25232341 -247.2007246 332.46379961 -247.18286133 329.67504883 C-247.17734429 327.67233487 -247.17267614 325.66961842 -247.16879272 323.66690063 C-247.15544377 318.23067308 -247.12911162 312.79458108 -247.09965348 307.35841966 C-247.07611963 302.81598936 -247.05867654 298.27354374 -247.04115504 293.73108691 C-246.99960655 283.00938835 -246.94731475 272.28777838 -246.88842773 261.56616211 C-246.82794489 250.5190931 -246.785672 239.47206058 -246.75240308 228.4248789 C-246.72315428 218.93076128 -246.68244283 209.43673924 -246.63263911 199.94270724 C-246.60303692 194.27673775 -246.57774294 188.61083404 -246.56351662 182.94480324 C-246.54963442 177.61197923 -246.5213823 172.2794172 -246.48231125 166.94672012 C-246.47037256 164.99532814 -246.46340132 163.0438981 -246.46190834 161.09247017 C-246.43373903 134.71410865 -246.43373903 134.71410865 -238 125 C-237.34 125 -236.68 125 -236 125 C-235.6596875 123.88625 -235.6596875 123.88625 -235.3125 122.75 C-233.72391487 119.42153592 -232.05001134 118.03334089 -229 116 C-227.66666667 115.66666667 -226.33333333 115.33333333 -225 115 C-224.67 114.01 -224.34 113.02 -224 112 C-221.66285396 110.85527541 -219.42925801 109.90088988 -217 109 C-216.31301025 108.73654785 -215.62602051 108.4730957 -214.91821289 108.20166016 C-206.50516794 105.00150888 -198.01361357 102.41712418 -189.3515625 99.96875 C-184.22770108 98.48772712 -179.19726277 96.77996759 -174.171875 94.99609375 C-167.50003776 92.67805799 -160.98629889 91.04519432 -154 90 C-154.33 89.34 -154.66 88.68 -155 88 C-176.41986379 86.67012334 -197.85380154 86.86888752 -219.30437541 86.89860606 C-224.65209877 86.90493048 -229.99982292 86.90545049 -235.34754944 86.90663147 C-245.43679785 86.90971834 -255.5260352 86.91789544 -265.61527878 86.92798096 C-277.11740559 86.93922504 -288.61953298 86.94467329 -300.12166393 86.94967639 C-323.74778204 86.96008078 -347.3738904 86.97762807 -371 87 C-370.67 86.01 -370.34 85.02 -370 84 C-369.38186448 84.00151888 -368.76372895 84.00303776 -368.12686205 84.00460267 C-331.44235685 84.09423156 -294.75786792 84.16280503 -258.07327554 84.20426132 C-253.6626197 84.20926379 -249.25196409 84.21444111 -244.84130859 84.21972656 C-243.9632742 84.2207758 -243.08523981 84.22182505 -242.18059832 84.22290608 C-227.9876474 84.24028291 -213.79476169 84.2718055 -199.60184938 84.30861118 C-185.02461622 84.34609654 -170.44741707 84.36825186 -155.87013769 84.37635398 C-146.88451422 84.38182605 -137.8990751 84.39907129 -128.91350842 84.43166587 C-122.74096328 84.45290767 -116.56851261 84.45917833 -110.39593363 84.45400551 C-106.84150757 84.45145865 -103.28740227 84.45519569 -99.73303413 84.4768219 C-76.11286071 84.61319898 -54.32345005 83.21948323 -36.44140625 65.75390625 C-32.16695767 60.93232826 -29.02962267 55.65898228 -26 50 C-25.56606934 49.19401367 -25.13213867 48.38802734 -24.68505859 47.55761719 C-18.16199022 35.37078002 -11.95654371 23.02117007 -5.83300781 10.62963867 C-5.35959961 9.67420166 -4.88619141 8.71876465 -4.3984375 7.734375 C-3.77461182 6.46932129 -3.77461182 6.46932129 -3.13818359 5.17871094 C-2 3 -2 3 0 0 Z " fill="#0165F4" transform="translate(507,166)"/>
<path d="M0 0 C0.66 0 1.32 0 2 0 C1.64135326 4.9015055 0.13451771 7.45652834 -2.73828125 11.2265625 C-4.68138165 13.95773148 -5.78578556 16.88527601 -7 20 C-7.72832508 21.81283834 -8.45752538 23.62532525 -9.1875 25.4375 C-9.7925245 26.95799227 -10.3969924 28.47870673 -11 30 C-11.66 30 -12.32 30 -13 30 C-13.37125 31.258125 -13.7425 32.51625 -14.125 33.8125 C-16.04940135 39.60394483 -18.96383901 44.72833666 -22 50 C-22.63228516 51.11568359 -22.63228516 51.11568359 -23.27734375 52.25390625 C-24.17774324 53.84001924 -25.08756255 55.42078134 -26 57 C-26.66 57 -27.32 57 -28 57 C-28.20625 57.66 -28.4125 58.32 -28.625 59 C-32.34711209 67.12097183 -38.53626893 73.16977129 -46 78 C-46.99 78 -47.98 78 -49 78 C-49 78.66 -49 79.32 -49 80 C-53 81.33333333 -57 82.66666667 -61 84 C-61.87479004 84.34353516 -62.74958008 84.68707031 -63.65087891 85.04101562 C-67.77407034 86.22164662 -71.5300212 86.35256424 -75.796875 86.4140625 C-76.65180038 86.43347397 -77.50672577 86.45288544 -78.38755798 86.47288513 C-81.17493781 86.53319261 -83.96234198 86.5795204 -86.75 86.625 C-88.67424342 86.66290656 -90.59847846 86.70124035 -92.52270508 86.73999023 C-109.68152829 87.06671484 -126.8388121 87.11167056 -144 87 C-143.92936378 87.59688257 -143.85872755 88.19376515 -143.78595084 88.80873507 C-143.08655253 95.15260369 -142.85590961 101.39500237 -142.86628723 107.77375793 C-142.86402167 108.8119131 -142.86175612 109.85006827 -142.85942191 110.91968268 C-142.85312806 114.37330586 -142.85390827 117.82688933 -142.85473633 121.28051758 C-142.85174213 123.76645966 -142.848339 126.25240128 -142.84455872 128.73834229 C-142.83665915 134.77323635 -142.83350548 140.80811499 -142.83294634 146.84301279 C-142.83247001 151.74738578 -142.83040946 156.65175557 -142.82724571 161.55612755 C-142.8184517 175.47211406 -142.81382489 189.38809288 -142.81457619 203.30408219 C-142.81461614 204.05282442 -142.8146561 204.80156666 -142.81469727 205.57299805 C-142.81473815 206.32265702 -142.81477903 207.07231599 -142.81482115 207.84469189 C-142.81522825 220.01392763 -142.8056393 232.18313252 -142.7915589 244.35235933 C-142.77720297 256.8585495 -142.77028814 269.3647246 -142.77115268 281.87092322 C-142.7714847 288.88810672 -142.76873456 295.90525779 -142.75797462 302.92243385 C-142.74793105 309.51424912 -142.74819676 316.10600746 -142.75549126 322.6978302 C-142.75654 325.11941312 -142.75415711 327.54100026 -142.7481308 329.96257591 C-142.74044955 333.26218568 -142.74502993 336.56155592 -142.75276184 339.86116028 C-142.74761828 340.82418479 -142.74247471 341.78720931 -142.73717529 342.77941638 C-142.74177408 343.66450372 -142.74637288 344.54959105 -142.75111103 345.46149921 C-142.75078498 346.60335114 -142.75078498 346.60335114 -142.75045234 347.76827079 C-143 350 -143 350 -145 355 C-178 355 -211 355 -245 355 C-245.33 354.34 -245.66 353.68 -246 353 C-212.67 353 -179.34 353 -145 353 C-145 266.21 -145 179.42 -145 90 C-147.97 90 -150.94 90 -154 90 C-154.33 89.34 -154.66 88.68 -155 88 C-176.41986379 86.67012334 -197.85380154 86.86888752 -219.30437541 86.89860606 C-224.65209877 86.90493048 -229.99982292 86.90545049 -235.34754944 86.90663147 C-245.43679785 86.90971834 -255.5260352 86.91789544 -265.61527878 86.92798096 C-277.11740559 86.93922504 -288.61953298 86.94467329 -300.12166393 86.94967639 C-323.74778204 86.96008078 -347.3738904 86.97762807 -371 87 C-370.67 86.01 -370.34 85.02 -370 84 C-369.38186448 84.00151888 -368.76372895 84.00303776 -368.12686205 84.00460267 C-331.44235685 84.09423156 -294.75786792 84.16280503 -258.07327554 84.20426132 C-253.6626197 84.20926379 -249.25196409 84.21444111 -244.84130859 84.21972656 C-243.9632742 84.2207758 -243.08523981 84.22182505 -242.18059832 84.22290608 C-227.9876474 84.24028291 -213.79476169 84.2718055 -199.60184938 84.30861118 C-185.02461622 84.34609654 -170.44741707 84.36825186 -155.87013769 84.37635398 C-146.88451422 84.38182605 -137.8990751 84.39907129 -128.91350842 84.43166587 C-122.74096328 84.45290767 -116.56851261 84.45917833 -110.39593363 84.45400551 C-106.84150757 84.45145865 -103.28740227 84.45519569 -99.73303413 84.4768219 C-76.11286071 84.61319898 -54.32345005 83.21948323 -36.44140625 65.75390625 C-32.16695767 60.93232826 -29.02962267 55.65898228 -26 50 C-25.56606934 49.19401367 -25.13213867 48.38802734 -24.68505859 47.55761719 C-18.16199022 35.37078002 -11.95654371 23.02117007 -5.83300781 10.62963867 C-5.35959961 9.67420166 -4.88619141 8.71876465 -4.3984375 7.734375 C-3.77461182 6.46932129 -3.77461182 6.46932129 -3.13818359 5.17871094 C-2 3 -2 3 0 0 Z " fill="#000A50" transform="translate(507,166)"/>
<path d="M0 0 C0 86.79 0 173.58 0 263 C-33.33 263 -66.66 263 -101 263 C-102.04968088 258.80127648 -102.11937091 255.0200058 -102.08229065 250.73638916 C-102.07744696 249.47557026 -102.07744696 249.47557026 -102.07250541 248.18928027 C-102.06042747 245.36865379 -102.04105514 242.5481245 -102.02172852 239.72753906 C-102.01158603 237.70727246 -102.00189233 235.68700355 -101.99261475 233.66673279 C-101.96613072 228.17744372 -101.93335177 222.68820799 -101.89946485 217.1989603 C-101.86512487 211.46410035 -101.83654332 205.72921181 -101.80735779 199.99432373 C-101.75120144 189.13235484 -101.68984667 178.27042174 -101.62663645 167.40849185 C-101.55493135 155.04348 -101.48900287 142.67843948 -101.42356598 130.31339312 C-101.28881703 104.87555821 -101.14679303 79.43776806 -101 54 C-100.67 54 -100.34 54 -100 54 C-100 122.31 -100 190.62 -100 261 C-67.66 261 -35.32 261 -2 261 C-2 175.2 -2 89.4 -2 1 C-4.97 1 -7.94 1 -11 1 C-7 -1 -7 -1 0 0 Z " fill="#0F55CA" transform="translate(362,256)"/>
<path d="M0 0 C1.04449911 3.13349732 0.93423645 3.98968256 0 7 C37.01182865 7.04580238 74.02365303 7.08103187 111.0355043 7.10213066 C115.40754002 7.104632 119.77957569 7.10722065 124.15161133 7.10986328 C125.02198543 7.1103879 125.89235953 7.11091252 126.7891086 7.11145304 C140.87224721 7.1201498 154.95536946 7.13591575 169.03849838 7.15430559 C183.49479911 7.17302494 197.95109129 7.18412103 212.40740365 7.18817699 C221.32388514 7.19091782 230.24032035 7.19956691 239.1567876 7.21583293 C245.27555147 7.22642493 251.39429151 7.22959561 257.51306389 7.22700275 C261.04044747 7.22572491 264.56775033 7.22764972 268.09511948 7.23841095 C271.92735946 7.2500163 275.75949551 7.24595817 279.5917511 7.24050903 C281.24792457 7.24924756 281.24792457 7.24924756 282.93755609 7.25816262 C289.04620664 7.23475165 294.67454424 6.68023985 300.6393525 5.33138835 C303.09702928 4.986379 304.66290914 5.22840995 307 6 C292.9292698 10.86583384 278.92724435 10.55385215 264.20276809 10.46426249 C260.59429248 10.44679653 256.98584066 10.45284754 253.37733459 10.45587158 C247.14332652 10.457957 240.90948743 10.44553354 234.67552185 10.42292023 C225.66256699 10.39024779 216.64969285 10.37997773 207.63668519 10.37496826 C193.00953432 10.36623935 178.38247327 10.33968946 163.75537109 10.30175781 C149.5564824 10.26497519 135.3576182 10.23669413 121.15869141 10.21972656 C120.28173129 10.21867567 119.40477117 10.21762477 118.5012365 10.21654204 C114.10126578 10.21132144 109.70129489 10.20626671 105.30132389 10.20129442 C68.86748588 10.15990736 32.43374997 10.08952493 -4 10 C-3.31620454 6.04991941 -2.21156817 3.36542982 0 0 Z " fill="#148BD5" transform="translate(141,241)"/>
<path d="M0 0 C-0.59927826 3.35595828 -1.84622436 5.37801226 -4 8 C-4 6.35 -4 4.7 -4 3 C-152.995 2.505 -152.995 2.505 -305 2 C-305 1.67 -305 1.34 -305 1 C-304.36808451 0.99826375 -303.73616903 0.9965275 -303.08510458 0.99473864 C-265.66659609 0.89180181 -228.24810581 0.78370913 -190.82963184 0.66888306 C-186.34084843 0.65511281 -181.85206488 0.64138581 -177.36328125 0.62768555 C-176.46961205 0.62495724 -175.57594286 0.62222894 -174.65519278 0.61941796 C-160.16829857 0.57529382 -145.68139653 0.53467714 -131.1944886 0.49534739 C-116.3393239 0.45494015 -101.48417379 0.41078524 -86.62903059 0.36312145 C-77.45612504 0.33380855 -68.28322063 0.30744973 -59.11029612 0.28482103 C-52.82759658 0.26904273 -46.54491491 0.24963767 -40.26223518 0.22733159 C-36.63271071 0.21455392 -33.00320005 0.20342224 -29.37365913 0.19658089 C-25.44631605 0.18913662 -21.51902395 0.17407931 -17.59170532 0.15821838 C-16.43413746 0.15724028 -15.27656961 0.15626217 -14.08392394 0.15525442 C-13.03840656 0.14977998 -11.99288919 0.14430554 -10.91568947 0.1386652 C-9.55439208 0.13467814 -9.55439208 0.13467814 -8.16559374 0.13061053 C-1.00432469 -0.30129741 -1.00432469 -0.30129741 0 0 Z " fill="#13AAF5" transform="translate(507,165)"/>
<path d="M0 0 C0.66 0 1.32 0 2 0 C1.64135326 4.9015055 0.13451771 7.45652834 -2.73828125 11.2265625 C-4.68138165 13.95773148 -5.78578556 16.88527601 -7 20 C-7.72832508 21.81283834 -8.45752538 23.62532525 -9.1875 25.4375 C-9.7925245 26.95799227 -10.3969924 28.47870673 -11 30 C-11.66 30 -12.32 30 -13 30 C-13.37125 31.258125 -13.7425 32.51625 -14.125 33.8125 C-16.04940135 39.60394483 -18.96383901 44.72833666 -22 50 C-22.42152344 50.74378906 -22.84304688 51.48757812 -23.27734375 52.25390625 C-24.17774324 53.84001924 -25.08756255 55.42078134 -26 57 C-26.66 57 -27.32 57 -28 57 C-28.20625 57.66 -28.4125 58.32 -28.625 59 C-32.34711209 67.12097183 -38.53626893 73.16977129 -46 78 C-46.99 78 -47.98 78 -49 78 C-49 78.66 -49 79.32 -49 80 C-50.91603157 80.64771508 -52.83285113 81.29309948 -54.75 81.9375 C-56.35101563 82.47697266 -56.35101563 82.47697266 -57.984375 83.02734375 C-62.60161452 84.51658292 -65.22560789 85.19359803 -70 84 C-70 83.67 -70 83.34 -70 83 C-69.36835938 82.86464844 -68.73671875 82.72929687 -68.0859375 82.58984375 C-52.36315627 78.80640792 -38.93753328 71.14443071 -30.0625 57.3125 C-28.66906257 54.88888377 -27.318808 52.46337975 -26 50 C-25.56606934 49.19401367 -25.13213867 48.38802734 -24.68505859 47.55761719 C-18.16199022 35.37078002 -11.95654371 23.02117007 -5.83300781 10.62963867 C-5.35959961 9.67420166 -4.88619141 8.71876465 -4.3984375 7.734375 C-3.98255371 6.89100586 -3.56666992 6.04763672 -3.13818359 5.17871094 C-2 3 -2 3 0 0 Z " fill="#011658" transform="translate(507,166)"/>
<path d="M0 0 C22.44 0 44.88 0 68 0 C68 0.33 68 0.66 68 1 C56.78 1 45.56 1 34 1 C34 1.99 34 2.98 34 4 C30.7 4 27.4 4 24 4 C23.67 3.34 23.34 2.68 23 2 C11.615 1.505 11.615 1.505 0 1 C0 0.67 0 0.34 0 0 Z " fill="#01033E" transform="translate(329,252)"/>
<path d="M0 0 C0.66 0.33 1.32 0.66 2 1 C1.67 1.61875 1.34 2.2375 1 2.875 C-0.14193235 4.91018344 -0.14193235 4.91018344 0 7 C-1.01320313 7.45439453 -1.01320313 7.45439453 -2.046875 7.91796875 C-7.10631963 10.294153 -10.92947779 12.1150783 -14 17 C-14.99 16.67 -15.98 16.34 -17 16 C-17 15.34 -17 14.68 -17 14 C-16.34 14 -15.68 14 -15 14 C-14.773125 13.2575 -14.54625 12.515 -14.3125 11.75 C-12.72391487 8.42153592 -11.05001134 7.03334089 -8 5 C-6.66666667 4.66666667 -5.33333333 4.33333333 -4 4 C-3.67 3.01 -3.34 2.02 -3 1 C-2.01 0.67 -1.02 0.34 0 0 Z " fill="#096AED" transform="translate(286,277)"/>
<path d="M0 0 C-0.60328125 0.17015625 -1.2065625 0.3403125 -1.828125 0.515625 C-6.63803944 1.97411519 -9.57841943 3.18362168 -13 7 C-13.99 7 -14.98 7 -16 7 C-16 7.66 -16 8.32 -16 9 C-19 11 -19 11 -22 11 C-22 11.66 -22 12.32 -22 13 C-23.53125 14.5078125 -23.53125 14.5078125 -25.5 16.125 C-26.1496875 16.66382813 -26.799375 17.20265625 -27.46875 17.7578125 C-27.9740625 18.16773438 -28.479375 18.57765625 -29 19 C-29.66 18.67 -30.32 18.34 -31 18 C-24.68929518 10.22994469 -11.30382653 -4.3331335 0 0 Z " fill="#1080C4" transform="translate(202,168)"/>
<path d="M0 0 C-0.59927826 3.35595828 -1.84622436 5.37801226 -4 8 C-4 6.35 -4 4.7 -4 3 C-15.385 2.505 -15.385 2.505 -27 2 C-27 1.67 -27 1.34 -27 1 C-26.37432129 0.97494385 -25.74864258 0.9498877 -25.10400391 0.92407227 C-22.27745381 0.80824727 -19.45124831 0.68546015 -16.625 0.5625 C-15.14773438 0.50352539 -15.14773438 0.50352539 -13.640625 0.44335938 C-12.22910156 0.38051758 -12.22910156 0.38051758 -10.7890625 0.31640625 C-9.91975098 0.27974854 -9.05043945 0.24309082 -8.15478516 0.20532227 C-1.44634258 -0.43390277 -1.44634258 -0.43390277 0 0 Z " fill="#12ABF8" transform="translate(507,165)"/>
<path d="M0 0 C1.33453734 4.04900444 0.51356885 6.37881926 -1.03125 10.2265625 C-2 12 -2 12 -4.1875 13.5 C-4.785625 13.665 -5.38375 13.83 -6 14 C-6 14.66 -6 15.32 -6 16 C-6.66 15.67 -7.32 15.34 -8 15 C-7.34 13.35 -6.68 11.7 -6 10 C-5.34 10 -4.68 10 -4 10 C-3.8453125 8.9171875 -3.8453125 8.9171875 -3.6875 7.8125 C-2.94013068 4.75508007 -1.71954811 2.61670365 0 0 Z " fill="#0F8DD3" transform="translate(150,224)"/>
<path d="M0 0 C0.33 0.66 0.66 1.32 1 2 C1.66 2 2.32 2 3 2 C1.87994369 5.36016893 0.62788203 6.69064913 -2 9 C-2.66 9 -3.32 9 -4 9 C-4.33 10.65 -4.66 12.3 -5 14 C-6.26937991 10.46675783 -5.7575638 8.66899682 -4.1875 5.3125 C-3.83042969 4.52488281 -3.47335937 3.73726563 -3.10546875 2.92578125 C-2 1 -2 1 0 0 Z " fill="#0A66E4" transform="translate(268,295)"/>
<path d="M0 0 C0.66 0 1.32 0 2 0 C0.05580907 6.00931743 -3.76935907 10.51290604 -9 14 C-9.66 13.67 -10.32 13.34 -11 13 C-10.54109375 12.48050781 -10.0821875 11.96101562 -9.609375 11.42578125 C-6.88819799 8.33301494 -4.20354452 5.26405775 -1.6875 2 C-1.130625 1.34 -0.57375 0.68 0 0 Z " fill="#010E4B" transform="translate(476,225)"/>
<path d="M0 0 C0.66 0.33 1.32 0.66 2 1 C1.54625 1.721875 1.0925 2.44375 0.625 3.1875 C-0.85494358 5.74894081 -1.97217539 8.23277989 -3 11 C-4.32 10.67 -5.64 10.34 -7 10 C-7 9.34 -7 8.68 -7 8 C-6.34 8 -5.68 8 -5 8 C-4.731875 7.236875 -4.46375 6.47375 -4.1875 5.6875 C-3.05575888 3.12619116 -2.08776599 1.80307062 0 0 Z " fill="#084AB6" transform="translate(276,283)"/>
<path d="M0 0 C0.66 0.33 1.32 0.66 2 1 C1.01 1.33 0.02 1.66 -1 2 C-1 2.66 -1 3.32 -1 4 C-5.68493876 6.48887372 -8.9444214 5.85687773 -14 5 C-14 4.67 -14 4.34 -14 4 C-13.24074219 3.79503906 -12.48148437 3.59007812 -11.69921875 3.37890625 C-10.20841797 2.97478516 -10.20841797 2.97478516 -8.6875 2.5625 C-7.70136719 2.29566406 -6.71523438 2.02882812 -5.69921875 1.75390625 C-3.78482474 1.21920575 -1.88566385 0.62855462 0 0 Z " fill="#012367" transform="translate(451,245)"/>
<path d="M0 0 C0.99 0 1.98 0 3 0 C1.84414715 3.91211733 0.64465038 6.8745041 -2 10 C-3 9 -3 9 -3.1875 6.5625 C-3 4 -3 4 -1 2 C-0.67 1.34 -0.34 0.68 0 0 Z " fill="#0EA3E8" transform="translate(495,183)"/>
<path d="M0 0 C-0.54339792 4.56454251 -1.79463821 7.9728176 -4 12 C-4.33 12 -4.66 12 -5 12 C-5 10.35 -5 8.7 -5 7 C-4.34 7 -3.68 7 -3 7 C-3.33 5.02 -3.66 3.04 -4 1 C-2 0 -2 0 0 0 Z " fill="#12A2EF" transform="translate(488,201)"/>
<path d="M0 0 C-4.92984325 2.03993514 -8.57960425 3.40652968 -14 3 C-13 1 -13 1 -11.07421875 0.33203125 C-10.28660156 0.16058594 -9.49898438 -0.01085937 -8.6875 -0.1875 C-7.90761719 -0.36667969 -7.12773437 -0.54585938 -6.32421875 -0.73046875 C-3.90795241 -1.01067443 -2.29757048 -0.74132137 0 0 Z " fill="#0D4FBE" transform="translate(351,258)"/>
<path d="M0 0 C-0.59927826 3.35595828 -1.84622436 5.37801226 -4 8 C-4 6.35 -4 4.7 -4 3 C-3.34 3 -2.68 3 -2 3 C-2 2.34 -2 1.68 -2 1 C-3.32 0.67 -4.64 0.34 -6 0 C-3.50907189 -1.24546405 -2.58919267 -0.7767578 0 0 Z " fill="#1781C6" transform="translate(507,165)"/>
<path d="M0 0 C0.99 0.33 1.98 0.66 3 1 C1.02 3.97 -0.96 6.94 -3 10 C-3.33 8.68 -3.66 7.36 -4 6 C-3.34 6 -2.68 6 -2 6 C-1.855625 5.195625 -1.71125 4.39125 -1.5625 3.5625 C-1 1 -1 1 0 0 Z " fill="#1597DD" transform="translate(477,219)"/>
<path d="M0 0 C0.33 0 0.66 0 1 0 C1 1.98 1 3.96 1 6 C0.34 6 -0.32 6 -1 6 C-1.33 7.65 -1.66 9.3 -2 11 C-2.95465783 8.83032311 -3.14401212 7.43671207 -2.3984375 5.17578125 C-1.64129615 3.4315257 -0.82390802 1.71372869 0 0 Z " fill="#083A9C" transform="translate(265,298)"/>
<path d="M0 0 C0.66 0.33 1.32 0.66 2 1 C1.67 1.61875 1.34 2.2375 1 2.875 C-0.14193235 4.91018344 -0.14193235 4.91018344 0 7 C-0.66 7 -1.32 7 -2 7 C-2 6.01 -2 5.02 -2 4 C-2.66 4 -3.32 4 -4 4 C-3.67 3.01 -3.34 2.02 -3 1 C-2.01 0.67 -1.02 0.34 0 0 Z " fill="#0752C8" transform="translate(286,277)"/>
<path d="M0 0 C1.32 0.33 2.64 0.66 4 1 C3.34 1 2.68 1 2 1 C2 1.66 2 2.32 2 3 C1.34 3 0.68 3 0 3 C-0.66 4.32 -1.32 5.64 -2 7 C-2.33 6.01 -2.66 5.02 -3 4 C-1.5625 1.8125 -1.5625 1.8125 0 0 Z " fill="#076EF7" transform="translate(288,277)"/>
<path d="M0 0 C0.66 0 1.32 0 2 0 C1.75 1.875 1.75 1.875 1 4 C-1.0625 5.25 -1.0625 5.25 -3 6 C-3 4.35 -3 2.7 -3 1 C-2.01 1.33 -1.02 1.66 0 2 C0 1.34 0 0.68 0 0 Z " fill="#0EA5EA" transform="translate(461,236)"/>
<path d="M0 0 C0.66 0 1.32 0 2 0 C1.60196439 2.88575819 1.20990931 3.82189513 -1.0625 5.75 C-1.701875 6.1625 -2.34125 6.575 -3 7 C-3.33 6.01 -3.66 5.02 -4 4 C-2.68 3.67 -1.36 3.34 0 3 C0 2.01 0 1.02 0 0 Z " fill="#149DEC" transform="translate(468,230)"/>
<path d="M0 0 C0.66 0.99 1.32 1.98 2 3 C1.01 3.33 0.02 3.66 -1 4 C-1.33 5.65 -1.66 7.3 -2 9 C-2.66 9 -3.32 9 -4 9 C-2.94124926 5.59687262 -1.99097846 2.98646769 0 0 Z " fill="#0E68AA" transform="translate(161,202)"/>
</svg>
